<svg width="180" height="45" viewBox="0 0 180 45" fill="none" xmlns="http://www.w3.org/2000/svg">
	<path d="M141.784 44.0532H136.733L136.738 27.6072C136.738 26.9465 136.92 26.3003 137.4 25.8274C137.881 25.3545 138.494 25.1992 139.281 25.1992H141.79L141.784 44.0532Z" fill="#203564"/>
	<path d="M89.8033 44.0403H84.8191V33.3007V32.3352C84.8191 31.2322 84.5251 30.3274 83.826 29.8219C83.152 29.3238 82.3261 29.0569 81.4782 29.0631C80.6406 29.0532 79.8248 29.321 79.1662 29.8219C78.4915 30.3279 78.1006 31.2327 78.1006 32.3352L78.1108 44.0517H73.0561L73.0488 32.9299C73.0488 29.8043 74.1061 27.686 75.7204 26.4981C77.2392 25.3794 79.2264 24.7482 81.2969 24.6553C82.4042 24.6553 83.3214 24.7572 84.4512 25.0878C85.994 25.5387 87.4202 27.0268 87.4202 27.0268C87.4202 27.0268 89.0101 24.6994 93.0883 24.6994C95.2068 24.6994 96.9221 25.2722 98.5821 26.4981C100.242 27.7239 101.706 29.7322 101.706 32.9498V44.0531H99.1886C98.4654 44.0531 97.7403 43.8454 97.2837 43.4077C96.8271 42.97 96.5978 42.4076 96.5978 41.7181V32.3352C96.5978 31.2322 96.1877 30.3587 95.4895 29.8522C94.0986 28.8412 92.1849 28.8412 90.7939 29.8522C90.0958 30.3587 89.8072 31.2322 89.8072 32.3352V44.0403H89.8033Z" fill="#203564"/>
	<path fill-rule="evenodd" clip-rule="evenodd" d="M121.466 38.3399H117.91C117.21 38.3399 116.869 38.5771 116.57 38.8418C116.452 38.9455 116.341 39.0488 116.233 39.15C115.512 39.8217 114.891 40.4013 112.835 40.4013C110.078 40.4013 108.219 38.5161 108.004 35.8644L121.716 35.8687C121.716 35.8618 121.718 35.8114 121.721 35.7356C121.731 35.4898 121.751 34.9773 121.748 34.8176C121.69 31.5468 121.014 29.4409 119.154 27.456C117.53 25.724 115.23 24.8364 112.588 24.8364C109.727 24.8364 107.458 26.0023 105.835 27.723C104.25 29.404 103.58 31.6059 103.58 34.6305C103.58 37.6192 104.388 40.0128 106.026 41.6986C107.69 43.4084 109.681 44.4155 112.41 44.4155C114.769 44.4155 116.687 43.951 118.19 42.941C119.744 41.8975 120.913 40.3248 121.466 38.3399ZM116.878 32.6767L108.077 32.6621C108.278 30.5921 110.025 28.723 112.621 28.723C115.268 28.723 116.878 30.7599 116.878 32.6767Z" fill="#203564"/>
	<path d="M123.653 44.0532L123.646 35.8501C123.646 35.6138 123.465 32.7162 124.081 30.8817C126.149 24.7244 134.493 25.2136 134.485 25.2056L134.474 29.9911C134.474 29.9911 128.756 29.5822 128.756 33.4233L128.737 44.0451L123.653 44.0532Z" fill="#203564"/>
	<path d="M0 36.3562L4.92495 36.3681C5.23168 37.9175 5.61792 38.4161 6.4758 39.0011C7.52999 39.7193 8.47375 39.9755 10.295 39.9546C14.0568 39.9105 14.5133 37.9028 14.5039 37.1708C14.4387 32.2194 0.512862 35.4093 0.117296 26.7219C0.0133518 24.6443 0.927386 22.6407 2.58443 21.3137C4.16866 20.0945 5.98944 19.0697 9.05238 19.0365C11.9239 19.0028 14.1143 19.5887 15.7657 20.7159C17.7092 22.0443 19.1413 24.3954 19.265 26.6171L16.4356 26.6233C15.2975 26.6233 14.5128 26.1712 14.1412 25.3599C13.9184 24.8576 13.5609 24.4218 13.1057 24.0975C12.265 23.5112 10.8791 23.1397 9.17704 23.1397C5.14776 23.1397 4.23884 26.7675 6.11802 27.8743C10.614 30.521 19.1457 29.5954 19.6566 36.5612C19.769 38.0874 19.1167 44.4155 10.4025 44.4155C7.19871 44.4155 4.95488 43.6427 3.33532 42.3713C1.57539 41.1022 0.207108 39.0091 0 36.3562Z" fill="#203564"/>
	<path d="M38.2102 25.2034V35.5108C38.2102 40.8026 35.8859 44.2345 29.9474 44.2345C24.1129 44.2345 21.54 40.9171 21.54 35.8558L21.5546 25.2194L26.5885 25.2034L26.5992 36.2965C26.5992 39.0775 28.1181 39.8373 29.7289 39.8373C31.3003 39.8373 33.3198 38.9724 33.3198 36.2777L33.3048 27.6072C33.3048 26.954 33.4868 26.3676 33.9418 25.9005C34.3968 25.4334 35.1608 25.1826 36.0076 25.2001L38.2102 25.2034Z" fill="#203564"/>
	<path d="M40.6453 22.4637C40.6487 21.5848 40.9009 19.9329 43.0568 19.9414C43.1181 19.9414 45.7025 19.9414 45.7025 19.9414L45.6982 44.0527H40.6453V22.4637Z" fill="#203564"/>
	<path fill-rule="evenodd" clip-rule="evenodd" d="M55.8014 21.636C56.3587 20.2191 57.3302 19.9414 58.7218 19.9414H62.4732L71.3631 44.0494H66.0907L64.2683 39.0521L54.6307 39.0653L52.7957 44.0527H47.5754C47.5754 44.0527 55.5668 22.2759 55.8014 21.636ZM59.471 25.9101L56.2045 34.7854L62.7201 34.7892L62.2708 33.5541L59.471 25.9101Z" fill="#203564"/>
	<path fill-rule="evenodd" clip-rule="evenodd" d="M177.641 26.4301C179.079 27.3602 179.799 29.221 179.799 30.8942L179.813 44.271H176.852C176.075 44.271 175.715 43.7055 175.561 43.4611C174.702 43.947 173.535 44.2814 172.57 44.3529C168.705 44.638 166.776 43.9082 165.436 43.0022C164.096 42.0962 163.143 40.486 163.143 38.3951C163.143 36.4424 164.101 35.2281 165.267 34.3254C166.492 33.3773 167.615 33.0301 169.502 32.7521L171.61 32.4254C173.794 32.1464 174.911 31.562 174.911 30.5878C174.911 29.1021 172.901 28.7408 171.775 28.7408C169.334 28.7408 168.718 29.9091 168.6 30.4135L163.73 30.4102C164.003 28.7398 164.661 27.6685 165.968 26.6588C167.436 25.525 169.268 24.8364 171.751 24.8364C174.53 24.8364 176.25 25.5487 177.641 26.4301ZM168.583 39.9792C169.163 40.53 170.318 40.7782 170.974 40.7782C175.117 40.7782 175.058 38.3823 175.024 36.9902C175.021 36.8727 175.018 36.7623 175.018 36.6612V34.7668C174.358 35.2835 173.526 35.4568 172.058 35.714L170.349 36.0147C169.433 36.2042 168.943 36.3382 168.461 36.8198C168.035 37.2437 167.888 37.9105 167.888 38.4215C167.888 38.9548 168.14 39.5587 168.583 39.9792Z" fill="#203564"/>
	<path d="M117.815 19.9414L114.426 23.1992C114.426 23.1992 114.101 23.5672 113.351 23.5672H111.072L112.975 20.8165C113.232 20.4822 113.331 20.2897 113.55 20.153C113.804 19.9934 113.984 19.9414 114.414 19.9414H117.815Z" fill="#203564"/>
	<path d="M141.788 23.5672H136.733V22.2142C136.733 21.5904 136.974 21.0557 137.456 20.6103C137.917 20.1735 138.542 19.9325 139.19 19.9417H141.79L141.788 23.5672Z" fill="#203564"/>
	<path d="M129.378 2.51888C146.056 -0.835771 167.157 9.05007 179.355 5.50778C180.142 5.27918 180.351 5.65922 179.167 6.11117C174.899 7.74135 167.622 7.42275 155.963 6.27167C131.874 3.89474 130.083 8.72955 117.236 12.3319C107.164 15.1574 101.332 15.0464 101.332 15.0464C101.332 15.0464 102.365 14.5283 102.912 14.2078C102.953 14.1859 118.442 4.71817 129.378 2.51888Z" fill="#B75528"/>
	<path d="M0.12027 6.17074C-1.15854 6.56404 7.70313 11.8309 29.4619 8.29688C43.7552 5.97527 61.6125 1.85205 74.1854 11.1931C90.1204 23.031 103.457 13.7771 103.392 13.828C103.392 13.828 100.86 14.4874 88.2371 13.5063C69.7225 12.0645 66.8696 -3.27631 47.7799 0.636845C39.1148 2.41397 35.8261 3.89294 29.6071 5.58669C12.5778 10.2238 4.46039 7.28562 0.332018 6.18158C0.262994 6.16377 0.190864 6.16008 0.12027 6.17074Z" fill="#D8742C"/>
	<path d="M158.786 38.1753H161.831C161.448 40.034 159.343 44.2344 153.044 44.2344C146.361 44.2344 143.85 38.7356 143.85 34.5507C143.85 28.251 148.364 24.6553 153.108 24.6553C155.727 24.6553 158.059 25.5071 159.726 27.1946C160.889 28.3737 161.456 30.2277 161.456 30.2277L156.702 30.2352C156.702 30.2352 156.017 28.5694 153.345 28.5694C151.249 28.5694 148.246 29.408 148.246 34.3404C148.246 35.6421 148.701 40.1887 153.283 40.1887C154.119 40.1887 155.161 40.1519 156.187 39.3525C157.22 38.5474 157.057 38.1691 158.786 38.1753Z" fill="#203564"/>
</svg>
